<mxfile host="app.diagrams.net" modified="2024-07-07T14:33:35.617Z" agent="Mozilla/5.0 (Windows NT 10.0; Win64; x64) AppleWebKit/537.36 (KHTML, like Gecko) Chrome/126.0.0.0 Safari/537.36" etag="_qTNHwV4B3qKnophRqOR" version="24.6.4" type="device">
  <diagram name="Page-1" id="f3cQ8en_kPf_cFlp299X">
    <mxGraphModel dx="820" dy="451" grid="1" gridSize="10" guides="1" tooltips="1" connect="1" arrows="1" fold="1" page="1" pageScale="1" pageWidth="827" pageHeight="1169" math="0" shadow="0">
      <root>
        <mxCell id="0" />
        <mxCell id="1" parent="0" />
        <mxCell id="G4_v4bOu-lfiYIZihZ4R-56" value="package" style="shape=folder;fontStyle=1;spacingTop=10;tabWidth=40;tabHeight=14;tabPosition=left;html=1;whiteSpace=wrap;" vertex="1" parent="1">
          <mxGeometry x="40" y="40" width="440" height="400" as="geometry" />
        </mxCell>
        <mxCell id="G4_v4bOu-lfiYIZihZ4R-8" value="" style="html=1;outlineConnect=0;whiteSpace=wrap;fillColor=#AFFFAF;shape=mxgraph.archimate3.application;appType=artifact;archiType=square;" vertex="1" parent="1">
          <mxGeometry x="500" y="40" width="110" height="400" as="geometry" />
        </mxCell>
        <mxCell id="G4_v4bOu-lfiYIZihZ4R-2" value="" style="rounded=1;whiteSpace=wrap;html=1;align=center;" vertex="1" parent="1">
          <mxGeometry x="60" y="80" width="400" height="340" as="geometry" />
        </mxCell>
        <mxCell id="G4_v4bOu-lfiYIZihZ4R-3" value="&lt;font style=&quot;font-size: 16px;&quot;&gt;&lt;b&gt;Agent&lt;/b&gt;&lt;/font&gt;" style="text;html=1;align=center;verticalAlign=middle;whiteSpace=wrap;rounded=0;" vertex="1" parent="1">
          <mxGeometry x="60" y="95" width="90" height="30" as="geometry" />
        </mxCell>
        <mxCell id="G4_v4bOu-lfiYIZihZ4R-4" value="" style="rounded=1;whiteSpace=wrap;html=1;" vertex="1" parent="1">
          <mxGeometry x="510" y="80" width="90" height="340" as="geometry" />
        </mxCell>
        <mxCell id="G4_v4bOu-lfiYIZihZ4R-5" value="" style="rounded=1;whiteSpace=wrap;html=1;" vertex="1" parent="1">
          <mxGeometry x="630" y="80" width="90" height="340" as="geometry" />
        </mxCell>
        <mxCell id="G4_v4bOu-lfiYIZihZ4R-10" value="&lt;font style=&quot;font-size: 12px;&quot;&gt;&lt;b&gt;&amp;lt;&amp;lt;source&amp;gt;&amp;gt; server.py&lt;/b&gt;&lt;/font&gt;" style="text;html=1;align=center;verticalAlign=middle;whiteSpace=wrap;rounded=0;" vertex="1" parent="1">
          <mxGeometry x="500" y="40" width="100" height="40" as="geometry" />
        </mxCell>
        <mxCell id="G4_v4bOu-lfiYIZihZ4R-11" value="&lt;b&gt;&lt;font style=&quot;font-size: 16px;&quot;&gt;Server&lt;/font&gt;&lt;/b&gt;" style="text;html=1;align=center;verticalAlign=middle;whiteSpace=wrap;rounded=0;" vertex="1" parent="1">
          <mxGeometry x="525" y="225" width="60" height="30" as="geometry" />
        </mxCell>
        <mxCell id="G4_v4bOu-lfiYIZihZ4R-12" value="&lt;font style=&quot;font-size: 25px;&quot;&gt;&lt;b&gt;&lt;font style=&quot;font-size: 25px;&quot;&gt;Umgebung&lt;/font&gt;&lt;/b&gt;&lt;/font&gt;&lt;div&gt;&lt;font style=&quot;font-size: 25px;&quot;&gt;&lt;b style=&quot;background-color: initial;&quot;&gt;&lt;font style=&quot;font-size: 25px;&quot;&gt;(Spielinstanz)&lt;/font&gt;&lt;/b&gt;&lt;/font&gt;&lt;/div&gt;" style="text;html=1;align=center;verticalAlign=middle;whiteSpace=wrap;rounded=0;rotation=90;" vertex="1" parent="1">
          <mxGeometry x="560" y="235" width="240" height="30" as="geometry" />
        </mxCell>
        <mxCell id="G4_v4bOu-lfiYIZihZ4R-35" style="edgeStyle=orthogonalEdgeStyle;rounded=0;orthogonalLoop=1;jettySize=auto;html=1;exitX=0.5;exitY=1;exitDx=0;exitDy=0;" edge="1" parent="1" source="G4_v4bOu-lfiYIZihZ4R-13" target="G4_v4bOu-lfiYIZihZ4R-33">
          <mxGeometry relative="1" as="geometry" />
        </mxCell>
        <mxCell id="G4_v4bOu-lfiYIZihZ4R-13" value="Umgebungszustand" style="rounded=0;whiteSpace=wrap;html=1;" vertex="1" parent="1">
          <mxGeometry x="322.5" y="140" width="120" height="40" as="geometry" />
        </mxCell>
        <mxCell id="G4_v4bOu-lfiYIZihZ4R-21" style="edgeStyle=orthogonalEdgeStyle;rounded=0;orthogonalLoop=1;jettySize=auto;html=1;exitX=0.5;exitY=1;exitDx=0;exitDy=0;entryX=0.5;entryY=0;entryDx=0;entryDy=0;" edge="1" parent="1" source="G4_v4bOu-lfiYIZihZ4R-16" target="G4_v4bOu-lfiYIZihZ4R-20">
          <mxGeometry relative="1" as="geometry" />
        </mxCell>
        <mxCell id="G4_v4bOu-lfiYIZihZ4R-16" value="Entscheidung über nächste Aktion" style="rounded=0;whiteSpace=wrap;html=1;" vertex="1" parent="1">
          <mxGeometry x="322.5" y="320" width="120" height="40" as="geometry" />
        </mxCell>
        <mxCell id="G4_v4bOu-lfiYIZihZ4R-19" style="edgeStyle=orthogonalEdgeStyle;rounded=0;orthogonalLoop=1;jettySize=auto;html=1;exitX=0.5;exitY=1;exitDx=0;exitDy=0;" edge="1" parent="1" source="G4_v4bOu-lfiYIZihZ4R-17" target="G4_v4bOu-lfiYIZihZ4R-13">
          <mxGeometry relative="1" as="geometry" />
        </mxCell>
        <mxCell id="G4_v4bOu-lfiYIZihZ4R-47" style="edgeStyle=orthogonalEdgeStyle;rounded=0;orthogonalLoop=1;jettySize=auto;html=1;exitX=0;exitY=0.5;exitDx=0;exitDy=0;entryX=0.5;entryY=0;entryDx=0;entryDy=0;" edge="1" parent="1" source="G4_v4bOu-lfiYIZihZ4R-17" target="G4_v4bOu-lfiYIZihZ4R-45">
          <mxGeometry relative="1" as="geometry" />
        </mxCell>
        <mxCell id="G4_v4bOu-lfiYIZihZ4R-17" value="game_state: dict" style="rounded=1;whiteSpace=wrap;html=1;arcSize=50;" vertex="1" parent="1">
          <mxGeometry x="332.5" y="100" width="100" height="20" as="geometry" />
        </mxCell>
        <mxCell id="G4_v4bOu-lfiYIZihZ4R-23" style="edgeStyle=orthogonalEdgeStyle;rounded=0;orthogonalLoop=1;jettySize=auto;html=1;exitX=1;exitY=0.5;exitDx=0;exitDy=0;" edge="1" parent="1" source="G4_v4bOu-lfiYIZihZ4R-20" target="G4_v4bOu-lfiYIZihZ4R-22">
          <mxGeometry relative="1" as="geometry" />
        </mxCell>
        <mxCell id="G4_v4bOu-lfiYIZihZ4R-20" value="next_move: str" style="rounded=1;whiteSpace=wrap;html=1;arcSize=50;" vertex="1" parent="1">
          <mxGeometry x="332.5" y="380" width="100" height="20" as="geometry" />
        </mxCell>
        <mxCell id="G4_v4bOu-lfiYIZihZ4R-22" value="" style="rounded=0;whiteSpace=wrap;html=1;" vertex="1" parent="1">
          <mxGeometry x="530" y="380" width="20" height="20" as="geometry" />
        </mxCell>
        <mxCell id="G4_v4bOu-lfiYIZihZ4R-27" style="edgeStyle=orthogonalEdgeStyle;rounded=0;orthogonalLoop=1;jettySize=auto;html=1;exitX=0;exitY=0.5;exitDx=0;exitDy=0;entryX=1;entryY=0.5;entryDx=0;entryDy=0;" edge="1" parent="1" source="G4_v4bOu-lfiYIZihZ4R-26" target="G4_v4bOu-lfiYIZihZ4R-17">
          <mxGeometry relative="1" as="geometry" />
        </mxCell>
        <mxCell id="G4_v4bOu-lfiYIZihZ4R-26" value="" style="rounded=0;whiteSpace=wrap;html=1;" vertex="1" parent="1">
          <mxGeometry x="530" y="100" width="20" height="20" as="geometry" />
        </mxCell>
        <mxCell id="G4_v4bOu-lfiYIZihZ4R-28" style="edgeStyle=orthogonalEdgeStyle;rounded=0;orthogonalLoop=1;jettySize=auto;html=1;exitX=0.005;exitY=0.09;exitDx=0;exitDy=0;entryX=1;entryY=0.5;entryDx=0;entryDy=0;exitPerimeter=0;" edge="1" parent="1" source="G4_v4bOu-lfiYIZihZ4R-5" target="G4_v4bOu-lfiYIZihZ4R-26">
          <mxGeometry relative="1" as="geometry" />
        </mxCell>
        <mxCell id="G4_v4bOu-lfiYIZihZ4R-64" style="edgeStyle=orthogonalEdgeStyle;rounded=0;orthogonalLoop=1;jettySize=auto;html=1;exitX=1;exitY=0.5;exitDx=0;exitDy=0;entryX=0;entryY=0.5;entryDx=0;entryDy=0;" edge="1" parent="1" source="G4_v4bOu-lfiYIZihZ4R-31" target="G4_v4bOu-lfiYIZihZ4R-37">
          <mxGeometry relative="1" as="geometry" />
        </mxCell>
        <mxCell id="G4_v4bOu-lfiYIZihZ4R-31" value="simulate_moves()" style="rounded=1;whiteSpace=wrap;html=1;arcSize=50;" vertex="1" parent="1">
          <mxGeometry x="133.75" y="267.5" width="110" height="20" as="geometry" />
        </mxCell>
        <mxCell id="G4_v4bOu-lfiYIZihZ4R-38" style="edgeStyle=orthogonalEdgeStyle;rounded=0;orthogonalLoop=1;jettySize=auto;html=1;exitX=0.5;exitY=1;exitDx=0;exitDy=0;entryX=0.5;entryY=0;entryDx=0;entryDy=0;" edge="1" parent="1" source="G4_v4bOu-lfiYIZihZ4R-33" target="G4_v4bOu-lfiYIZihZ4R-37">
          <mxGeometry relative="1" as="geometry" />
        </mxCell>
        <mxCell id="G4_v4bOu-lfiYIZihZ4R-33" value="Mögliche Folgezustände" style="rounded=0;whiteSpace=wrap;html=1;" vertex="1" parent="1">
          <mxGeometry x="322.5" y="200" width="120" height="40" as="geometry" />
        </mxCell>
        <mxCell id="G4_v4bOu-lfiYIZihZ4R-39" style="edgeStyle=orthogonalEdgeStyle;rounded=0;orthogonalLoop=1;jettySize=auto;html=1;exitX=0.5;exitY=1;exitDx=0;exitDy=0;entryX=0.5;entryY=0;entryDx=0;entryDy=0;" edge="1" parent="1" source="G4_v4bOu-lfiYIZihZ4R-37" target="G4_v4bOu-lfiYIZihZ4R-16">
          <mxGeometry relative="1" as="geometry" />
        </mxCell>
        <mxCell id="G4_v4bOu-lfiYIZihZ4R-37" value="Vorteilhafte Folgezustände" style="rounded=0;whiteSpace=wrap;html=1;" vertex="1" parent="1">
          <mxGeometry x="322.5" y="255" width="120" height="45" as="geometry" />
        </mxCell>
        <mxCell id="G4_v4bOu-lfiYIZihZ4R-41" style="edgeStyle=orthogonalEdgeStyle;rounded=0;orthogonalLoop=1;jettySize=auto;html=1;exitX=1;exitY=0.5;exitDx=0;exitDy=0;entryX=0.019;entryY=0.912;entryDx=0;entryDy=0;entryPerimeter=0;" edge="1" parent="1" source="G4_v4bOu-lfiYIZihZ4R-22" target="G4_v4bOu-lfiYIZihZ4R-5">
          <mxGeometry relative="1" as="geometry" />
        </mxCell>
        <mxCell id="G4_v4bOu-lfiYIZihZ4R-53" style="edgeStyle=orthogonalEdgeStyle;rounded=0;orthogonalLoop=1;jettySize=auto;html=1;exitX=1;exitY=0.5;exitDx=0;exitDy=0;entryX=0;entryY=0.5;entryDx=0;entryDy=0;" edge="1" parent="1" source="G4_v4bOu-lfiYIZihZ4R-45" target="G4_v4bOu-lfiYIZihZ4R-13">
          <mxGeometry relative="1" as="geometry" />
        </mxCell>
        <mxCell id="G4_v4bOu-lfiYIZihZ4R-60" style="edgeStyle=orthogonalEdgeStyle;rounded=0;orthogonalLoop=1;jettySize=auto;html=1;exitX=0.75;exitY=1;exitDx=0;exitDy=0;entryX=0.5;entryY=0;entryDx=0;entryDy=0;" edge="1" parent="1" source="G4_v4bOu-lfiYIZihZ4R-45" target="G4_v4bOu-lfiYIZihZ4R-46">
          <mxGeometry relative="1" as="geometry">
            <Array as="points">
              <mxPoint x="173" y="170" />
              <mxPoint x="224" y="170" />
            </Array>
          </mxGeometry>
        </mxCell>
        <mxCell id="G4_v4bOu-lfiYIZihZ4R-75" style="edgeStyle=orthogonalEdgeStyle;rounded=0;orthogonalLoop=1;jettySize=auto;html=1;exitX=0;exitY=0.75;exitDx=0;exitDy=0;entryX=0.5;entryY=0;entryDx=0;entryDy=0;" edge="1" parent="1" source="G4_v4bOu-lfiYIZihZ4R-45" target="G4_v4bOu-lfiYIZihZ4R-66">
          <mxGeometry relative="1" as="geometry">
            <Array as="points">
              <mxPoint x="127" y="168" />
            </Array>
          </mxGeometry>
        </mxCell>
        <mxCell id="G4_v4bOu-lfiYIZihZ4R-45" value="&lt;font style=&quot;font-size: 12px;&quot;&gt;state: SimpleGameState&lt;/font&gt;" style="rounded=1;whiteSpace=wrap;html=1;arcSize=50;" vertex="1" parent="1">
          <mxGeometry x="136.25" y="145" width="107.5" height="30" as="geometry" />
        </mxCell>
        <mxCell id="G4_v4bOu-lfiYIZihZ4R-65" style="edgeStyle=orthogonalEdgeStyle;rounded=0;orthogonalLoop=1;jettySize=auto;html=1;exitX=1;exitY=0.5;exitDx=0;exitDy=0;entryX=0;entryY=0.5;entryDx=0;entryDy=0;" edge="1" parent="1" source="G4_v4bOu-lfiYIZihZ4R-46" target="G4_v4bOu-lfiYIZihZ4R-33">
          <mxGeometry relative="1" as="geometry" />
        </mxCell>
        <mxCell id="G4_v4bOu-lfiYIZihZ4R-46" value="safe_moves()" style="rounded=1;whiteSpace=wrap;html=1;arcSize=50;" vertex="1" parent="1">
          <mxGeometry x="200" y="210" width="93.75" height="20" as="geometry" />
        </mxCell>
        <mxCell id="G4_v4bOu-lfiYIZihZ4R-72" style="edgeStyle=orthogonalEdgeStyle;rounded=0;orthogonalLoop=1;jettySize=auto;html=1;exitX=0;exitY=0;exitDx=51.875;exitDy=0;exitPerimeter=0;entryX=0.5;entryY=1;entryDx=0;entryDy=0;endArrow=none;endFill=0;" edge="1" parent="1" source="G4_v4bOu-lfiYIZihZ4R-51" target="G4_v4bOu-lfiYIZihZ4R-31">
          <mxGeometry relative="1" as="geometry" />
        </mxCell>
        <mxCell id="G4_v4bOu-lfiYIZihZ4R-51" value="&lt;div style=&quot;font-size: 13px;&quot;&gt;&lt;span style=&quot;background-color: initial;&quot;&gt;&lt;font style=&quot;font-size: 13px;&quot;&gt;Berechnung&amp;nbsp;&lt;/font&gt;&lt;/span&gt;&lt;/div&gt;&lt;div style=&quot;font-size: 13px;&quot;&gt;&lt;span style=&quot;background-color: initial;&quot;&gt;&lt;font style=&quot;font-size: 13px;&quot;&gt;nach Monte-Carlo-Sampling begrenzter Tiefe&lt;/font&gt;&lt;/span&gt;&lt;br&gt;&lt;/div&gt;" style="shape=note;whiteSpace=wrap;html=1;backgroundOutline=1;darkOpacity=0.05;" vertex="1" parent="1">
          <mxGeometry x="133.75" y="310" width="133.75" height="90" as="geometry" />
        </mxCell>
        <mxCell id="G4_v4bOu-lfiYIZihZ4R-58" value="&lt;font style=&quot;font-size: 10px;&quot;&gt;&lt;b style=&quot;font-size: 10px;&quot;&gt;&amp;lt;&amp;lt;folder&amp;gt;&amp;gt; monte_carlo_tree_search&amp;nbsp;&lt;/b&gt;&lt;/font&gt;&lt;b style=&quot;font-size: 10px; background-color: initial;&quot;&gt;(Implementation der Agentenfunktion) betreten durch mcts.py&lt;/b&gt;" style="text;html=1;align=left;verticalAlign=middle;whiteSpace=wrap;rounded=0;fontSize=10;" vertex="1" parent="1">
          <mxGeometry x="41" y="50" width="373" height="30" as="geometry" />
        </mxCell>
        <mxCell id="G4_v4bOu-lfiYIZihZ4R-66" value="heuristic()" style="rounded=1;whiteSpace=wrap;html=1;arcSize=50;" vertex="1" parent="1">
          <mxGeometry x="80" y="210" width="93.75" height="20" as="geometry" />
        </mxCell>
        <mxCell id="G4_v4bOu-lfiYIZihZ4R-68" style="edgeStyle=orthogonalEdgeStyle;rounded=0;orthogonalLoop=1;jettySize=auto;html=1;exitX=0;exitY=0.75;exitDx=0;exitDy=0;entryX=0.55;entryY=-0.182;entryDx=0;entryDy=0;entryPerimeter=0;" edge="1" parent="1" source="G4_v4bOu-lfiYIZihZ4R-46" target="G4_v4bOu-lfiYIZihZ4R-31">
          <mxGeometry relative="1" as="geometry" />
        </mxCell>
        <mxCell id="G4_v4bOu-lfiYIZihZ4R-69" style="edgeStyle=orthogonalEdgeStyle;rounded=0;orthogonalLoop=1;jettySize=auto;html=1;exitX=0.75;exitY=0;exitDx=0;exitDy=0;entryX=0.128;entryY=1.093;entryDx=0;entryDy=0;entryPerimeter=0;" edge="1" parent="1" source="G4_v4bOu-lfiYIZihZ4R-31" target="G4_v4bOu-lfiYIZihZ4R-46">
          <mxGeometry relative="1" as="geometry" />
        </mxCell>
        <mxCell id="G4_v4bOu-lfiYIZihZ4R-71" style="edgeStyle=orthogonalEdgeStyle;rounded=0;orthogonalLoop=1;jettySize=auto;html=1;exitX=0.25;exitY=0;exitDx=0;exitDy=0;entryX=0.838;entryY=1.036;entryDx=0;entryDy=0;entryPerimeter=0;" edge="1" parent="1" source="G4_v4bOu-lfiYIZihZ4R-31" target="G4_v4bOu-lfiYIZihZ4R-66">
          <mxGeometry relative="1" as="geometry" />
        </mxCell>
        <mxCell id="G4_v4bOu-lfiYIZihZ4R-77" style="edgeStyle=orthogonalEdgeStyle;rounded=0;orthogonalLoop=1;jettySize=auto;html=1;exitX=1;exitY=0.75;exitDx=0;exitDy=0;entryX=0.41;entryY=-0.182;entryDx=0;entryDy=0;entryPerimeter=0;" edge="1" parent="1" source="G4_v4bOu-lfiYIZihZ4R-66" target="G4_v4bOu-lfiYIZihZ4R-31">
          <mxGeometry relative="1" as="geometry" />
        </mxCell>
      </root>
    </mxGraphModel>
  </diagram>
</mxfile>
